<svg id="Layer_1" data-name="Layer 1" xmlns="http://www.w3.org/2000/svg" viewBox="0 0 774.81 60.48"><defs><style>.cls-1{isolation:isolate;}.cls-2{fill:#fff;}</style></defs><g id="THE_WEATHER_APP" data-name="THE WEATHER APP" class="cls-1"><g class="cls-1"><path class="cls-2" d="M61.49,40.62H40.82L32.51,88H17.3l8.32-47.38H4.87l2.35-13.1H63.84Z" transform="translate(-4.87 -27.52)"/><path class="cls-2" d="M117.35,27.52,106.76,88H91.56l3.86-21.84H79L75.26,88H60.06L70.73,27.52H85.85L81.31,53.06H97.69l4.54-25.54Z" transform="translate(-4.87 -27.52)"/><path class="cls-2" d="M160.78,88H118.61l10.67-60.48h42.16l-2.35,13.1H142L140.11,52h22.35L160.1,65.07H137.76l-1.68,9.83h27Z" transform="translate(-4.87 -27.52)"/><path class="cls-2" d="M245.45,27.52,244,73.3H246l14.62-45.78H277L256.28,88h-25.2l2.27-38.72L222.09,88h-25.2l.59-60.48H214L212.43,73.3h1.94l14.7-45.78Z" transform="translate(-4.87 -27.52)"/><path class="cls-2" d="M316.76,88H274.59l10.67-60.48h42.17l-2.35,13.1H298L296.1,52h22.34l-2.35,13.11H293.75l-1.68,9.83h27Z" transform="translate(-4.87 -27.52)"/><path class="cls-2" d="M356.32,88l.51-13.19h-14L338.68,88h-16l21.59-60.48H372L372.28,88Zm-3.44-45.78-6.64,21.34h11l.92-21.34Z" transform="translate(-4.87 -27.52)"/><path class="cls-2" d="M435.28,40.62H414.62L406.3,88H391.1l8.32-47.38H378.67L381,27.52h56.62Z" transform="translate(-4.87 -27.52)"/><path class="cls-2" d="M491.14,27.52,480.56,88h-15.2l3.86-21.84H452.84L449.06,88h-15.2l10.66-60.48h15.12l-4.53,25.54h16.38L476,27.52Z" transform="translate(-4.87 -27.52)"/><path class="cls-2" d="M534.57,88H492.4l10.67-60.48h42.17l-2.35,13.1h-27L513.91,52h22.34L533.9,65.07H511.55l-1.67,9.83h27Z" transform="translate(-4.87 -27.52)"/><path class="cls-2" d="M579.26,27.52q9.57,0,13.61,4.2a11.29,11.29,0,0,1,3,8.06,19.14,19.14,0,0,1-.34,3.53l-1.17,6.55a21.12,21.12,0,0,1-3.49,8.82,14.76,14.76,0,0,1-5.5,4.79L593,88h-17L569,65.4H563.8L560.36,88H544.23L554.9,27.52ZM574,40.62h-6.3l-2.19,14.62h5.88q4.46,0,6.39-2.14a8.19,8.19,0,0,0,1.93-5.67Q579.68,40.62,574,40.62Z" transform="translate(-4.87 -27.52)"/><path class="cls-2" d="M649.4,88l.5-13.19h-14L631.76,88h-16L637.3,27.52H665L665.36,88ZM646,42.22l-6.63,21.34h11l.92-21.34Z" transform="translate(-4.87 -27.52)"/><path class="cls-2" d="M701.73,69.6h-10L688.46,88H673.34L684,27.52h25.62q9.5,0,13.53,4.37a12.53,12.53,0,0,1,2.94,8.57,22,22,0,0,1-.34,3.69l-1.68,9.49a17.76,17.76,0,0,1-7.39,11.47A24.57,24.57,0,0,1,701.73,69.6Zm2.6-29h-7.56L694,56.5h7.48q6.88,0,8-6.13l.58-3.45a9,9,0,0,0,.17-2A4.49,4.49,0,0,0,709,42.14Q707.69,40.63,704.33,40.62Z" transform="translate(-4.87 -27.52)"/><path class="cls-2" d="M755.32,69.6h-10L742.05,88H726.93l10.66-60.48h25.62q9.49,0,13.53,4.37a12.53,12.53,0,0,1,2.94,8.57,21,21,0,0,1-.34,3.69l-1.68,9.49a17.76,17.76,0,0,1-7.39,11.47A24.57,24.57,0,0,1,755.32,69.6Zm2.6-29h-7.56L747.59,56.5h7.48q6.88,0,8-6.13l.58-3.45a9,9,0,0,0,.17-2,4.49,4.49,0,0,0-1.26-2.77Q761.28,40.63,757.92,40.62Z" transform="translate(-4.87 -27.52)"/></g></g></svg>